# xmcd
#
# Track frame offsets: 
#        183
#        46383
#        124908
#        137283
#        150108
#        153633
#        163083
#        180108
#        183108
#        185358
#        187308
#        191733
#        197658
#        201408
#        218883
#        226683
#
# Disc length: 3175 seconds
#
# Revision: 5
# Processed by: cddbd v1.5.2PL0 Copyright (c) Steve Scherf et al.
# Submitted via: ExactAudioCopyFreeDBPlugin 1.0
#
DISCID=d60c6510
DTITLE=Anton Webern - Complete Music For String Quartet - Quartetto It
DTITLE=aliano
DYEAR=1970
DGENRE=Classical
TTITLE0=Slow Movement For String Quartet (1905)
TTITLE1=String Quartet (1905)
TTITLE2=Five Movements For String Quartet Op.5: I. Heftig Bewegt
TTITLE3=Five Movements For String Quartet Op.5: II. Sehr Langsam
TTITLE4=Five Movements For String Quartet Op.5: III. Sehr Bewegt
TTITLE5=Five Movements For String Quartet Op.5: IV. Sehr Langsam
TTITLE6=Five Movements For String Quartet Op.5: V. In Zarter Bewegung
TTITLE7=Six Bagatelles For String Quartet Op.9: I. Mässig
TTITLE8=Six Bagatelles For String Quartet Op.9: II. Leicht Bewegt
TTITLE9=Six Bagatelles For String Quartet Op.9: III. Ziemlich Fliessen
TTITLE9=d
TTITLE10=Six Bagatelles For String Quartet Op.9: IV. Sehr Langsam
TTITLE11=Six Bagatelles For String Quartet Op.9: V. Äusserst Langsam
TTITLE12=Six Bagatelles For String Quartet Op.9: VI. Fliessend
TTITLE13=String Quartet Op.28: I. Mässig
TTITLE14=String Quartet Op.28: II. Gemächlich
TTITLE15=String Quartet Op.28: III. Sehr Fliessend
EXTD=
EXTT0=
EXTT1=
EXTT2=
EXTT3=
EXTT4=
EXTT5=
EXTT6=
EXTT7=
EXTT8=
EXTT9=
EXTT10=
EXTT11=
EXTT12=
EXTT13=
EXTT14=
EXTT15=
PLAYORDER=
